<svg xmlns="http://www.w3.org/2000/svg" width="812" height="613" viewBox="0 0 812 613" fill="none">
   <rect width="100%" height="100%" fill="url(#gradient)" />
<g clip-path="url(#clip0_103_969)" filter="url(#filter0_d_103_969)" style="    transform: scale(.7);
    transform-origin: center;">
<path d="M487.46 473.095L421.319 521.419C419.898 522.45 418.543 523.714 417.311 525.112C416.078 526.509 414.957 528.039 414.024 529.613C413.092 531.188 412.325 532.785 411.804 534.337C411.282 535.89 410.982 537.376 410.982 538.706L410.815 600.171C410.815 601.368 411.082 602.288 411.57 602.943C412.059 603.597 412.758 603.963 413.636 604.063C414.513 604.162 415.534 603.985 416.678 603.519C417.821 603.054 419.076 602.322 420.397 601.29L482.164 553.254C483.385 552.301 484.562 551.159 485.65 549.906C486.738 548.653 487.727 547.278 488.582 545.881C489.437 544.483 490.147 543.053 490.669 541.667C491.191 540.281 491.524 538.95 491.613 537.741L496.165 475.978C496.265 474.636 496.098 473.549 495.71 472.74C495.321 471.93 494.711 471.365 493.933 471.099C493.156 470.833 492.19 470.855 491.102 471.176C490.014 471.498 488.781 472.13 487.482 473.084" fill="white"></path>
<path d="M581.626 404.301L523.101 447.059C521.847 447.968 520.636 449.121 519.504 450.407C518.371 451.705 517.328 453.135 516.428 454.621C515.529 456.107 514.763 457.648 514.208 459.156C513.653 460.664 513.275 462.128 513.164 463.459L507.79 525.245C507.69 526.453 507.823 527.407 508.168 528.105C508.512 528.804 509.056 529.248 509.767 529.425C510.477 529.602 511.343 529.514 512.32 529.159C513.297 528.804 514.397 528.172 515.573 527.252L570.667 484.405C571.755 483.562 572.832 482.509 573.831 481.334C574.831 480.169 575.774 478.872 576.596 477.541C577.418 476.2 578.128 474.825 578.672 473.472C579.216 472.119 579.605 470.799 579.772 469.602L588.576 407.905C588.765 406.574 588.721 405.465 588.465 404.622C588.21 403.78 587.755 403.17 587.122 402.837C586.489 402.504 585.701 402.449 584.768 402.682C583.835 402.915 582.769 403.447 581.615 404.29" fill="white"></path>
<path d="M665.421 343.069L613.281 381.17C612.17 381.979 611.06 383.033 610.016 384.23C608.973 385.428 607.985 386.781 607.119 388.2C606.252 389.62 605.497 391.094 604.909 392.558C604.321 394.022 603.899 395.452 603.699 396.783L594.25 458.436C594.061 459.644 594.106 460.62 594.339 461.363C594.572 462.106 594.994 462.594 595.56 462.838C596.126 463.082 596.859 463.071 597.703 462.793C598.547 462.516 599.513 461.984 600.568 461.163L650.01 422.719C650.987 421.954 651.975 420.989 652.908 419.892C653.84 418.794 654.729 417.574 655.528 416.299C656.328 415.024 657.027 413.682 657.593 412.373C658.16 411.054 658.581 409.768 658.826 408.559L670.984 347.261C671.25 345.941 671.283 344.832 671.139 343.956C670.995 343.08 670.651 342.437 670.151 342.06C669.651 341.683 668.985 341.561 668.197 341.717C667.408 341.872 666.465 342.326 665.443 343.08" fill="white"></path>
<path d="M140.621 346.684L152.946 407.938C153.19 409.135 153.612 410.433 154.167 411.752C154.722 413.072 155.411 414.402 156.188 415.678C156.965 416.953 157.831 418.184 158.731 419.27C159.63 420.357 160.585 421.333 161.54 422.098L209.416 460.631C210.438 461.452 211.371 461.995 212.181 462.272C212.992 462.549 213.691 462.56 214.246 462.316C214.801 462.073 215.19 461.585 215.401 460.842C215.612 460.099 215.645 459.123 215.456 457.925L205.708 396.306C205.497 394.975 205.075 393.534 204.498 392.081C203.92 390.617 203.176 389.131 202.333 387.712C201.489 386.293 200.523 384.94 199.512 383.731C198.502 382.523 197.425 381.48 196.348 380.66L145.884 342.493C144.885 341.739 143.986 341.295 143.22 341.129C142.454 340.962 141.821 341.095 141.343 341.472C140.866 341.849 140.555 342.493 140.422 343.369C140.288 344.245 140.344 345.353 140.61 346.673" fill="white"></path>
<path d="M220.364 407.472L229.491 469.136C229.669 470.345 230.057 471.664 230.59 473.006C231.123 474.348 231.823 475.734 232.633 477.075C233.433 478.406 234.354 479.703 235.331 480.879C236.308 482.054 237.352 483.097 238.407 483.95L291.802 526.919C292.945 527.839 294 528.471 294.955 528.826C295.899 529.192 296.731 529.281 297.409 529.103C298.086 528.926 298.608 528.482 298.93 527.784C299.252 527.085 299.385 526.12 299.263 524.923L293.434 463.159C293.312 461.817 292.945 460.354 292.379 458.857C291.824 457.349 291.08 455.807 290.192 454.31C289.303 452.813 288.293 451.383 287.183 450.086C286.084 448.788 284.896 447.635 283.685 446.726L227.004 403.857C225.883 403.014 224.861 402.482 223.962 402.249C223.062 402.016 222.307 402.072 221.708 402.404C221.108 402.737 220.675 403.336 220.442 404.19C220.209 405.044 220.176 406.141 220.375 407.472" fill="white"></path>
<path d="M309.911 475.734L314.952 537.487C315.052 538.695 315.385 540.026 315.895 541.412C316.406 542.798 317.117 544.228 317.949 545.637C318.782 547.045 319.759 548.409 320.814 549.662C321.869 550.926 323.012 552.068 324.201 553.022L384.124 601.246C385.401 602.278 386.622 603.02 387.732 603.486C388.843 603.952 389.831 604.129 390.664 604.041C391.496 603.952 392.174 603.575 392.629 602.921C393.084 602.266 393.34 601.346 393.317 600.149L392.485 538.684C392.462 537.354 392.174 535.857 391.652 534.315C391.13 532.763 390.386 531.155 389.465 529.58C388.543 528.006 387.455 526.476 386.256 525.067C385.057 523.67 383.735 522.395 382.359 521.353L318.227 472.851C316.961 471.897 315.784 471.265 314.73 470.933C313.675 470.6 312.753 470.589 311.998 470.855C311.243 471.121 310.666 471.676 310.311 472.496C309.955 473.317 309.8 474.403 309.911 475.734Z" fill="white"></path>
<path d="M221.452 283.679L156.244 318.02C154.856 318.752 153.734 319.595 152.89 320.504C152.047 321.413 151.491 322.378 151.225 323.343C150.959 324.308 151.003 325.283 151.358 326.204C151.714 327.124 152.391 327.978 153.39 328.732L204.231 366.467C205.319 367.276 206.641 367.875 208.095 368.285C209.55 368.695 211.16 368.895 212.803 368.895C214.446 368.895 216.123 368.695 217.755 368.296C219.387 367.897 220.941 367.298 222.34 366.489L288.226 328.876C289.536 328.133 290.547 327.268 291.28 326.348C292.012 325.428 292.434 324.463 292.556 323.487C292.679 322.511 292.512 321.547 292.035 320.637C291.557 319.728 290.769 318.885 289.67 318.142L238.151 283.679C237.13 282.991 235.897 282.481 234.543 282.138C233.188 281.794 231.711 281.627 230.213 281.627C228.703 281.627 227.159 281.794 225.671 282.138C224.184 282.481 222.74 282.991 221.452 283.668" fill="white"></path>
<path d="M303.238 339.022L237.23 377.4C235.82 378.221 234.709 379.163 233.888 380.183C233.066 381.203 232.566 382.279 232.367 383.366C232.167 384.452 232.289 385.539 232.744 386.57C233.199 387.602 233.988 388.566 235.109 389.398L292.223 431.801C293.445 432.71 294.899 433.387 296.487 433.841C298.075 434.296 299.796 434.529 301.539 434.529C303.282 434.529 305.048 434.307 306.735 433.852C308.423 433.398 310.033 432.721 311.443 431.823L377.895 389.564C379.205 388.733 380.216 387.768 380.893 386.737C381.57 385.705 381.937 384.619 381.981 383.532C382.025 382.445 381.748 381.359 381.159 380.35C380.571 379.329 379.66 378.387 378.428 377.566L320.858 339.044C319.715 338.279 318.371 337.714 316.917 337.326C315.462 336.938 313.886 336.749 312.298 336.749C310.71 336.749 309.089 336.938 307.546 337.315C306.002 337.692 304.526 338.268 303.216 339.022" fill="white"></path>
<path d="M398.147 283.834L339.034 318.197C337.779 318.929 336.802 319.772 336.125 320.681C335.448 321.59 335.059 322.555 334.97 323.52C334.882 324.485 335.093 325.46 335.614 326.381C336.136 327.301 336.958 328.155 338.101 328.909L395.727 366.677C396.959 367.486 398.391 368.085 399.924 368.495C401.456 368.906 403.099 369.105 404.742 369.105C406.386 369.105 408.029 368.906 409.583 368.507C411.138 368.107 412.592 367.497 413.858 366.699L473.06 329.053C474.237 328.31 475.092 327.445 475.658 326.525C476.213 325.605 476.468 324.64 476.424 323.664C476.38 322.688 476.035 321.724 475.391 320.814C474.747 319.905 473.815 319.051 472.582 318.319L414.868 283.834C413.725 283.146 412.403 282.636 410.982 282.292C409.572 281.949 408.062 281.782 406.552 281.782C405.042 281.782 403.532 281.949 402.1 282.292C400.667 282.636 399.324 283.146 398.147 283.823" fill="white"></path>
<path d="M394.727 400.941L328.209 444.098C326.787 445.018 325.688 446.094 324.911 447.236C324.134 448.378 323.69 449.598 323.579 450.829C323.468 452.06 323.701 453.279 324.267 454.444C324.833 455.608 325.766 456.695 327.032 457.637L391.674 505.618C393.062 506.649 394.672 507.425 396.404 507.935C398.136 508.445 399.99 508.711 401.844 508.711C403.699 508.711 405.564 508.456 407.318 507.946C409.073 507.436 410.716 506.66 412.148 505.64L478.789 457.837C480.11 456.894 481.076 455.807 481.698 454.643C482.32 453.479 482.597 452.259 482.542 451.028C482.486 449.797 482.087 448.578 481.354 447.436C480.621 446.293 479.566 445.218 478.178 444.286L413.414 400.952C412.137 400.098 410.66 399.455 409.073 399.023C407.496 398.59 405.808 398.379 404.121 398.379C402.433 398.379 400.734 398.59 399.135 399.011C397.536 399.433 396.026 400.076 394.705 400.93" fill="white"></path>
<path d="M489.881 339.211L430.69 377.611C429.424 378.431 428.481 379.374 427.848 380.394C427.215 381.414 426.893 382.49 426.904 383.576C426.915 384.663 427.226 385.75 427.859 386.781C428.492 387.812 429.458 388.777 430.735 389.62L495.488 432.045C496.876 432.954 498.453 433.63 500.118 434.096C501.783 434.551 503.549 434.784 505.292 434.784C507.035 434.784 508.767 434.562 510.377 434.107C511.987 433.653 513.475 432.976 514.73 432.078L573.676 389.797C574.842 388.965 575.664 388.001 576.163 386.969C576.663 385.938 576.829 384.852 576.685 383.765C576.541 382.678 576.074 381.591 575.297 380.571C574.52 379.551 573.443 378.598 572.066 377.777L507.557 339.233C506.28 338.468 504.826 337.902 503.305 337.514C501.783 337.126 500.162 336.938 498.564 336.938C496.965 336.938 495.388 337.126 493.911 337.503C492.435 337.88 491.058 338.446 489.892 339.211" fill="white"></path>
<path d="M574.986 283.989L521.98 318.375C520.847 319.107 520.026 319.961 519.515 320.859C519.004 321.757 518.782 322.733 518.871 323.709C518.96 324.684 519.349 325.649 520.037 326.569C520.725 327.49 521.702 328.355 522.979 329.098L587.411 366.888C588.787 367.697 590.331 368.296 591.941 368.706C593.551 369.117 595.227 369.316 596.87 369.316C598.514 369.316 600.124 369.117 601.612 368.717C603.088 368.318 604.443 367.708 605.564 366.91L658.071 329.242C659.115 328.499 659.825 327.634 660.214 326.714C660.602 325.793 660.691 324.829 660.469 323.853C660.247 322.877 659.725 321.912 658.926 321.003C658.126 320.094 657.027 319.24 655.673 318.508L591.741 284C590.475 283.313 589.054 282.803 587.577 282.459C586.1 282.115 584.557 281.949 583.047 281.949C581.537 281.949 580.049 282.115 578.672 282.459C577.296 282.803 576.041 283.313 574.997 283.989" fill="white"></path>
<path d="M252.619 270.661C252.641 271.237 252.785 271.803 253.063 272.346C253.485 273.167 254.206 273.943 255.228 274.619L306.846 308.44C307.945 309.161 309.256 309.704 310.666 310.059C312.087 310.425 313.619 310.602 315.174 310.602C316.728 310.602 318.305 310.425 319.804 310.07C321.302 309.715 322.724 309.172 323.989 308.451L383.058 274.719C384.224 274.054 385.123 273.278 385.723 272.457C386.167 271.858 386.444 271.237 386.589 270.594L252.63 270.65L252.619 270.661Z" fill="white"></path>
<path d="M426.959 270.583C427.071 271.237 427.337 271.88 427.759 272.49C428.325 273.311 429.191 274.087 430.335 274.763L488.038 308.606C489.27 309.327 490.669 309.87 492.157 310.236C493.645 310.602 495.21 310.779 496.765 310.779C498.319 310.779 499.862 310.602 501.295 310.247C502.727 309.892 504.059 309.349 505.192 308.628L558.265 274.885C559.32 274.22 560.075 273.444 560.53 272.623C560.907 271.958 561.074 271.248 561.063 270.539L426.959 270.594V270.583Z" fill="white"></path>
<g opacity="0.33">
<path d="M324.522 86.6445H319.859V196.089H324.522C336.769 196.089 342.598 185.023 342.598 141.367C342.598 97.711 336.769 86.6445 324.522 86.6445Z" fill="black"></path>
<path d="M215.212 86.6445H210.549V196.089H215.212C227.459 196.089 233.288 185.023 233.288 141.367C233.288 97.711 227.459 86.6445 215.212 86.6445Z" fill="black"></path>
<path d="M407.463 30.27C265.476 30.3255 132.183 24.382 8.75 14.6572V262.333C150.737 249.537 283.619 244.48 405.686 244.48C548.239 244.48 681.032 251.378 802.622 262.333V14.6572C680.199 24.3043 548.106 30.2146 407.452 30.27H407.463ZM108.245 231.03C77.0563 231.03 57.2373 199.594 57.2373 141.378C57.2373 83.1629 77.0563 51.7155 108.245 51.7155C139.434 51.7155 159.541 83.1518 159.541 141.378C159.541 199.605 139.434 231.03 108.245 231.03ZM215.212 228.701H176.451V54.0441H215.212C245.812 54.0441 270.306 83.1518 270.306 141.378C270.306 199.605 246.701 228.701 215.212 228.701ZM324.522 228.701H285.761V54.0441H324.522C355.123 54.0441 379.616 83.1518 379.616 141.378C379.616 199.605 356.011 228.701 324.522 228.701ZM429.158 228.701H395.06V54.0441H429.158V228.701ZM528.553 86.6447H502.616V228.701H468.508V86.6447H442.859V54.0441H528.553V86.6447ZM576.641 228.701H542.543V54.0441H576.641V228.701ZM666.709 228.701H597.637V54.0441H664.677V86.6447H631.745V122.738H659.148V155.339H631.745V196.09H666.72V228.69L666.709 228.701ZM714.797 231.607C700.518 231.607 685.063 223.745 674.87 208.897L690.614 180.665C690.614 180.665 702.861 196.677 711.888 196.677C718.006 196.677 723.257 192.308 723.257 185.034C723.257 163.788 680.122 137.298 680.122 95.0832C680.122 62.1942 702.861 51.1278 720.048 51.1278C734.038 51.1278 748.905 58.1136 755.9 70.045L741.033 98.8644C741.033 98.8644 734.616 85.7687 726.455 85.7687C721.214 85.7687 715.085 88.9733 715.085 97.9995C715.085 118.38 758.221 146.324 758.221 185.034C758.221 219.675 735.782 231.607 714.797 231.607Z" fill="black"></path>
<path d="M108.245 84.8926C99.4957 84.8926 95.4209 99.1526 95.4209 141.367C95.4209 183.582 99.4957 197.842 108.245 197.842C116.994 197.842 121.069 183.582 121.069 141.367C121.069 99.1526 116.983 84.8926 108.245 84.8926Z" fill="black"></path>
<path d="M324.522 86.6445H319.859V196.089H324.522C336.769 196.089 342.598 185.023 342.598 141.367C342.598 97.711 336.769 86.6445 324.522 86.6445Z" fill="#15494C"></path>
<path d="M215.212 86.6445H210.549V196.089H215.212C227.459 196.089 233.288 185.023 233.288 141.367C233.288 97.711 227.459 86.6445 215.212 86.6445Z" fill="#15494C"></path>
<path d="M407.463 30.27C265.476 30.3255 132.183 24.382 8.75 14.6572V262.333C150.737 249.537 283.619 244.48 405.686 244.48C548.239 244.48 681.032 251.378 802.622 262.333V14.6572C680.199 24.3043 548.106 30.2146 407.452 30.27H407.463ZM108.245 231.03C77.0563 231.03 57.2373 199.594 57.2373 141.378C57.2373 83.1629 77.0563 51.7155 108.245 51.7155C139.434 51.7155 159.541 83.1518 159.541 141.378C159.541 199.605 139.434 231.03 108.245 231.03ZM215.212 228.701H176.451V54.0441H215.212C245.812 54.0441 270.306 83.1518 270.306 141.378C270.306 199.605 246.701 228.701 215.212 228.701ZM324.522 228.701H285.761V54.0441H324.522C355.123 54.0441 379.616 83.1518 379.616 141.378C379.616 199.605 356.011 228.701 324.522 228.701ZM429.158 228.701H395.06V54.0441H429.158V228.701ZM528.553 86.6447H502.616V228.701H468.508V86.6447H442.859V54.0441H528.553V86.6447ZM576.641 228.701H542.543V54.0441H576.641V228.701ZM666.709 228.701H597.637V54.0441H664.677V86.6447H631.745V122.738H659.148V155.339H631.745V196.09H666.72V228.69L666.709 228.701ZM714.797 231.607C700.518 231.607 685.063 223.745 674.87 208.897L690.614 180.665C690.614 180.665 702.861 196.677 711.888 196.677C718.006 196.677 723.257 192.308 723.257 185.034C723.257 163.788 680.122 137.298 680.122 95.0832C680.122 62.1942 702.861 51.1278 720.048 51.1278C734.038 51.1278 748.905 58.1136 755.9 70.045L741.033 98.8644C741.033 98.8644 734.616 85.7687 726.455 85.7687C721.214 85.7687 715.085 88.9733 715.085 97.9995C715.085 118.38 758.221 146.324 758.221 185.034C758.221 219.675 735.782 231.607 714.797 231.607Z" fill="#15494C"></path>
<path d="M108.245 84.8926C99.4957 84.8926 95.4209 99.1526 95.4209 141.367C95.4209 183.582 99.4957 197.842 108.245 197.842C116.994 197.842 121.069 183.582 121.069 141.367C121.069 99.1526 116.983 84.8926 108.245 84.8926Z" fill="#15494C"></path>
</g>
<rect x="32.3491" y="32.4609" width="745.238" height="203.698" fill="#161616" fill-opacity="0.26"></rect>
<path d="M325.177 80.1797H320.514V189.625H325.177C337.424 189.625 343.253 178.558 343.253 134.902C343.253 91.2462 337.424 80.1797 325.177 80.1797Z" fill="white"></path>
<path d="M215.867 80.1797H211.204V189.625H215.867C228.114 189.625 233.943 178.558 233.943 134.902C233.943 91.2462 228.114 80.1797 215.867 80.1797Z" fill="white"></path>
<path d="M408.118 23.8052C266.131 23.8496 132.839 17.9171 9.40527 8.19238V255.868C151.392 243.072 284.274 238.016 406.341 238.016C548.894 238.016 681.687 244.913 803.278 255.868V8.19238C680.855 17.8395 548.761 23.7498 408.107 23.8052H408.118ZM108.9 224.554C77.7116 224.554 57.8925 193.118 57.8925 134.902C57.8925 76.6869 77.7116 45.2395 108.9 45.2395C140.089 45.2395 160.197 76.6759 160.197 134.902C160.197 193.129 140.089 224.554 108.9 224.554ZM215.868 222.225H177.107V47.5682H215.868C246.468 47.5682 270.961 76.6759 270.961 134.902C270.961 193.129 247.356 222.225 215.868 222.225ZM325.178 222.225H286.417V47.5682H325.178C355.778 47.5682 380.271 76.6759 380.271 134.902C380.271 193.129 356.666 222.225 325.178 222.225ZM429.813 222.225H395.716V47.5682H429.813V222.225ZM529.208 80.1799H503.272V222.237H469.163V80.1799H443.515V47.5793H529.208V80.1799ZM577.296 222.225H543.198V47.5682H577.296V222.225ZM667.364 222.225H598.292V47.5682H665.332V80.1688H632.401V116.262H659.803V148.863H632.401V189.614H667.375V222.214L667.364 222.225ZM715.452 225.142C701.173 225.142 685.718 217.28 675.525 202.432L691.269 174.201C691.269 174.201 703.516 190.212 712.543 190.212C718.661 190.212 723.913 185.844 723.913 178.569C723.913 157.324 680.777 130.833 680.777 88.6183C680.777 55.7294 703.516 44.6629 720.704 44.6629C734.694 44.6629 749.561 51.6488 756.556 63.5802L741.689 92.3996C741.689 92.3996 735.271 79.3039 727.11 79.3039C721.87 79.3039 715.741 82.5085 715.741 91.5346C715.741 111.916 758.876 139.859 758.876 178.569C758.876 213.21 736.437 225.142 715.452 225.142Z" fill="white"></path>
<path d="M108.9 78.4277C100.151 78.4277 96.0762 92.6877 96.0762 134.902C96.0762 177.117 100.151 191.377 108.9 191.377C117.65 191.377 121.724 177.117 121.724 134.902C121.724 92.6877 117.638 78.4277 108.9 78.4277Z" fill="white"></path>
</g>
<defs>
<filter id="filter0_d_103_969" x="0.75" y="0.192383" width="810.539" height="611.904" filterUnits="userSpaceOnUse" color-interpolation-filters="sRGB">
<feFlood flood-opacity="0" result="BackgroundImageFix"></feFlood>
<feColorMatrix in="SourceAlpha" type="matrix" values="0 0 0 0 0 0 0 0 0 0 0 0 0 0 0 0 0 0 127 0" result="hardAlpha"></feColorMatrix>
<feOffset></feOffset>
<feGaussianBlur stdDeviation="4"></feGaussianBlur>
<feComposite in2="hardAlpha" operator="out"></feComposite>
<feColorMatrix type="matrix" values="0 0 0 0 0 0 0 0 0 0 0 0 0 0 0 0 0 0 0.25 0"></feColorMatrix>
<feBlend mode="normal" in2="BackgroundImageFix" result="effect1_dropShadow_103_969"></feBlend>
<feBlend mode="normal" in="SourceGraphic" in2="effect1_dropShadow_103_969" result="shape"></feBlend>
</filter>
<clipPath id="clip0_103_969">
<rect width="794.538" height="595.904" fill="white" transform="translate(8.75 8.19238)"></rect>
</clipPath>
  <linearGradient id="gradient" x1="0%" y1="0%" x2="100%" y2="100%">
      <stop offset="0%" style="stop-color:#0094FF" />
      <stop offset="100%" style="stop-color:#D02B45" />
    </linearGradient>
</defs>
</svg>
